<svg width="60" height="48" viewBox="0 0 60 48" fill="none" xmlns="http://www.w3.org/2000/svg">
<path d="M54.9737 9.48492C52.1978 9.48492 49.9474 11.7353 49.9474 14.5112C49.9474 15.8332 50.4693 17.0252 51.3025 17.9224L42.2937 26.825L31.3 9.86027C33.4423 9.28348 35.0262 7.34801 35.0262 5.02441C35.0262 2.25035 32.7758 0 29.9999 0C27.2239 0 24.9736 2.25035 24.9736 5.02441C24.9736 7.34801 26.5575 9.28348 28.6998 9.86027L17.7061 26.825L8.6973 17.9224C9.53039 17.0252 10.0523 15.8332 10.0523 14.5112C10.0523 11.7353 7.80199 9.48492 5.02605 9.48492C2.25012 9.48492 0 11.7353 0 14.5112C0 17.2871 2.25035 19.5375 5.02629 19.5375V47.4684H30H54.9737V19.5375C57.7496 19.5375 60 17.2871 60 14.5112C60 11.7353 57.7496 9.48492 54.9737 9.48492Z" fill="#F0B418"/>
</svg>
