<svg width="61" height="61" viewBox="0 0 61 61" fill="none" xmlns="http://www.w3.org/2000/svg">
<g clip-path="url(#clip0_5_14)">
<path d="M30.5555 0.5C13.9852 0.5 0.555542 13.9297 0.555542 30.5C0.555542 47.0703 13.9852 60.5 30.5555 60.5C47.1259 60.5 60.5555 47.0703 60.5555 30.5C60.5555 13.9297 47.1259 0.5 30.5555 0.5ZM37.1766 25.4141L36.8368 29.9023H32.2313V45.4883H26.4188V29.9023H23.3134V25.4141H26.4188V22.4023C26.4188 21.0781 26.454 19.0273 27.4149 17.75C28.4344 16.4023 29.829 15.4883 32.2313 15.4883C36.1454 15.4883 37.786 16.0508 37.786 16.0508L37.0126 20.6445C37.0126 20.6445 35.7235 20.2695 34.5165 20.2695C33.3094 20.2695 32.2313 20.7031 32.2313 21.9102V25.4141H37.1766Z" fill="#F5F5F5"/>
</g>
<defs>
<clipPath id="clip0_5_14">
<rect width="60" height="60" fill="white" transform="translate(0.555542 0.5)"/>
</clipPath>
</defs>
</svg>
