<svg width="61" height="61" viewBox="0 0 61 61" fill="none" xmlns="http://www.w3.org/2000/svg">
<g clip-path="url(#clip0_2_149)">
<path d="M30.5555 35.7734C33.4618 35.7734 35.8407 33.4063 35.8407 30.4883C35.8407 29.3398 35.4657 28.2734 34.8446 27.4063C33.8836 26.082 32.3251 25.2031 30.5672 25.2031C28.8094 25.2031 27.2508 26.0703 26.2899 27.4063C25.6688 28.2734 25.2938 29.3398 25.2938 30.4883C25.2821 33.4063 27.6493 35.7734 30.5555 35.7734Z" fill="#F5F5F5"/>
<path d="M42.0868 24.043V19.6133V18.957H41.4305L37.0009 18.9688L37.0243 24.0547L42.0868 24.043Z" fill="#F5F5F5"/>
<path d="M38.7587 30.5C38.7587 35.0234 35.079 38.7031 30.5555 38.7031C26.0321 38.7031 22.3524 35.0234 22.3524 30.5C22.3524 29.4102 22.5751 28.3672 22.9618 27.418H18.4852V39.6992C18.4852 41.2812 19.7743 42.5703 21.3563 42.5703H39.7548C41.3368 42.5703 42.6259 41.2812 42.6259 39.6992V27.418H38.1493C38.5477 28.3672 38.7587 29.4102 38.7587 30.5Z" fill="#F5F5F5"/>
<path d="M30.5555 0.5C13.9852 0.5 0.555542 13.9297 0.555542 30.5C0.555542 47.0703 13.9852 60.5 30.5555 60.5C47.1259 60.5 60.5555 47.0703 60.5555 30.5C60.5555 13.9297 47.1259 0.5 30.5555 0.5ZM45.5555 27.418V39.6992C45.5555 42.8984 42.954 45.5 39.7548 45.5H21.3563C18.1571 45.5 15.5555 42.8984 15.5555 39.6992V27.418V21.2891C15.5555 18.0898 18.1571 15.4883 21.3563 15.4883H39.7548C42.954 15.4883 45.5555 18.0898 45.5555 21.2891V27.418Z" fill="#F5F5F5"/>
</g>
<defs>
<clipPath id="clip0_2_149">
<rect width="60" height="60" fill="white" transform="translate(0.555542 0.5)"/>
</clipPath>
</defs>
</svg>
