<svg width="57" height="72" viewBox="0 0 57 72" fill="none" xmlns="http://www.w3.org/2000/svg">
<path d="M15.6124 9.1786C13.8811 10.1021 11.7511 9.51992 10.8789 7.88487C9.98701 6.21296 10.7095 4.15647 12.4407 3.23297C14.172 2.30947 16.2824 2.85479 17.1742 4.5267C18.0464 6.16175 17.3436 8.2551 15.6124 9.1786ZM2.40603 14.6469C3.78345 13.9122 5.45984 14.4018 6.15379 15.7028C6.8674 17.0405 6.32074 18.6687 4.94331 19.4035C3.52686 20.159 1.8311 19.7271 1.11749 18.3893C0.423543 17.0884 0.989568 15.4025 2.40603 14.6469ZM27.5875 1.21426C28.9649 0.479492 30.6413 0.969159 31.3353 2.27006C32.0489 3.60783 31.5022 5.236 30.1248 5.97077C28.7083 6.72636 27.0126 6.29437 26.299 4.9566C25.605 3.6557 26.171 1.96985 27.5875 1.21426ZM13.9228 29.6028L6.08888 19.938C6.65879 19.4904 7.07106 18.8413 7.34467 18.2172C9.23776 18.6401 11.4656 18.8356 13.0395 17.9961C14.9281 16.9886 14.9957 13.4195 14.8297 10.5493C15.2431 10.4723 15.7359 10.3531 16.1299 10.1428C16.524 9.93261 16.8963 9.59046 17.1917 9.28928C19.4837 11.0269 22.485 12.9575 24.3737 11.95C25.9475 11.1105 27.026 9.15129 27.7291 7.34343C28.3998 7.46377 29.1685 7.48292 29.8577 7.25888L33.5215 19.1482L13.9228 29.6028Z" fill="black"/>
<path d="M33.864 62.208C33.608 61.696 33.2027 60.9706 32.648 60.032C32.136 59.0506 31.5387 58.0266 30.856 56.96C30.216 55.8506 29.5973 54.8693 29 54.016C28.4453 53.12 27.976 52.544 27.592 52.288C27.1227 51.9466 26.6747 51.7333 26.248 51.648C25.864 51.5626 25.3947 51.52 24.84 51.52C24.1147 51.52 23.368 51.7973 22.6 52.352C21.8747 52.864 21.256 53.504 20.744 54.272C20.232 55.04 19.912 55.7866 19.784 56.512C20.424 57.4933 21.448 58.432 22.856 59.328C24.3067 60.224 25.8213 60.9493 27.4 61.504C29.0213 62.016 30.408 62.272 31.56 62.272C31.944 62.272 32.328 62.272 32.712 62.272C33.096 62.2293 33.48 62.208 33.864 62.208ZM46.472 40.896C46.472 38.464 46.1947 35.9466 45.64 33.344C45.0853 30.6986 44.1893 28.2666 42.952 26.048C41.7147 23.7866 40.072 21.952 38.024 20.544C36.0187 19.136 33.544 18.432 30.6 18.432C28.3813 18.432 26.4187 18.9226 24.712 19.904C23.0053 20.8426 21.5547 22.1226 20.36 23.744C19.1653 25.3226 18.184 27.0933 17.416 29.056C16.6907 31.0186 16.1573 33.024 15.816 35.072C15.4747 37.12 15.304 39.0613 15.304 40.896C15.304 43.2 15.496 45.5253 15.88 47.872C16.3067 50.2186 17.1173 52.3946 18.312 54.4C19.1653 52.992 20.2747 51.712 21.64 50.56C23.0053 49.3653 24.5627 48.768 26.312 48.768C27.9333 48.768 29.2773 49.1306 30.344 49.856C31.4533 50.5386 32.4773 51.4986 33.416 52.736C34.3973 53.9306 35.2933 55.1893 36.104 56.512C36.9147 57.792 37.7253 59.0933 38.536 60.416C39.0907 59.9466 39.6453 59.4986 40.2 59.072C40.7547 58.6453 41.2667 58.1546 41.736 57.6C43.7413 55.3386 45.0213 52.7146 45.576 49.728C46.1733 46.7413 46.472 43.7973 46.472 40.896ZM56.392 67.136C56.392 67.264 56.2853 67.456 56.072 67.712C55.9013 67.968 55.7733 68.1386 55.688 68.224C54.7493 69.376 53.6187 70.2933 52.296 70.976C51.016 71.6586 49.6293 72 48.136 72C45.96 72 44.104 71.6586 42.568 70.976C41.032 70.2933 39.6667 69.3333 38.472 68.096C37.2773 66.8586 36.0613 65.408 34.824 63.744C34.184 63.7866 33.544 63.8506 32.904 63.936C32.3067 63.9786 31.688 64 31.048 64C27.7627 64 24.7333 63.4026 21.96 62.208C19.1867 61.0133 16.776 59.3493 14.728 57.216C12.7227 55.0826 11.1653 52.608 10.056 49.792C8.94668 46.976 8.39201 43.9466 8.39201 40.704C8.39201 37.376 8.92534 34.2613 9.99201 31.36C11.0587 28.416 12.5947 25.8346 14.6 23.616C16.6053 21.3973 18.9947 19.6693 21.768 18.432C24.584 17.152 27.72 16.512 31.176 16.512C36.0827 16.512 40.2 17.5786 43.528 19.712C46.856 21.8453 49.3733 24.7466 51.08 28.416C52.8293 32.0853 53.704 36.2453 53.704 40.896C53.704 43.8826 53.1493 46.784 52.04 49.6C50.9307 52.416 49.352 54.9546 47.304 57.216C45.256 59.4346 42.8453 61.1413 40.072 62.336C41.5653 64.1706 43.1227 65.6853 44.744 66.88C46.3653 68.1173 48.4133 68.736 50.888 68.736C51.144 68.736 51.5707 68.672 52.168 68.544C52.808 68.416 53.4053 68.224 53.96 67.968C54.5573 67.7546 54.92 67.5413 55.048 67.328L55.368 67.008C55.4533 66.9226 55.5387 66.8373 55.624 66.752C55.7093 66.6666 55.7733 66.624 55.816 66.624C56.2 66.624 56.392 66.7946 56.392 67.136Z" fill="black"/>
</svg>
