<svg width="56" height="72" viewBox="0 0 56 72" fill="none" xmlns="http://www.w3.org/2000/svg">
<path d="M14.7907 8.30714C13.0595 9.23064 10.9294 8.64846 10.0572 7.01341C9.16535 5.3415 9.88786 3.28501 11.6191 2.36151C13.3503 1.43801 15.4607 1.98333 16.3526 3.65524C17.2248 5.29029 16.5219 7.38364 14.7907 8.30714ZM1.58437 13.7755C2.9618 13.0407 4.63818 13.5304 5.33213 14.8313C6.04574 16.1691 5.49909 17.7972 4.12166 18.532C2.7052 19.2876 1.00945 18.8556 0.295836 17.5178C-0.398113 16.2169 0.167913 14.5311 1.58437 13.7755ZM26.7659 0.3428C28.1433 -0.391968 29.8197 0.0976995 30.5136 1.3986C31.2272 2.73637 30.6806 4.36454 29.3031 5.09931C27.8867 5.8549 26.1909 5.42291 25.4773 4.08514C24.7834 2.78424 25.3494 1.09839 26.7659 0.3428ZM13.1011 28.7314L5.26723 19.0665C5.83714 18.6189 6.2494 17.9698 6.52301 17.3457C8.41611 17.7687 10.644 17.9642 12.2178 17.1246C14.1064 16.1172 14.174 12.548 14.008 9.67781C14.4215 9.60086 14.9142 9.48159 15.3083 9.27137C15.7024 9.06115 16.0746 8.719 16.37 8.41782C18.662 10.1555 21.6634 12.086 23.552 11.0786C25.1258 10.239 26.2043 8.27983 26.9074 6.47197C27.5781 6.59231 28.3469 6.61146 29.036 6.38742L32.6999 18.2767L13.1011 28.7314Z" fill="#431183"/>
<path d="M33.0424 61.3365C32.7864 60.8245 32.381 60.0992 31.8264 59.1605C31.3144 58.1792 30.717 57.1552 30.0344 56.0885C29.3944 54.9792 28.7757 53.9978 28.1784 53.1445C27.6237 52.2485 27.1544 51.6725 26.7704 51.4165C26.301 51.0752 25.853 50.8618 25.4264 50.7765C25.0424 50.6912 24.573 50.6485 24.0184 50.6485C23.293 50.6485 22.5464 50.9258 21.7784 51.4805C21.053 51.9925 20.4344 52.6325 19.9224 53.4005C19.4104 54.1685 19.0904 54.9152 18.9624 55.6405C19.6024 56.6219 20.6264 57.5605 22.0344 58.4565C23.485 59.3525 24.9997 60.0779 26.5784 60.6325C28.1997 61.1445 29.5864 61.4005 30.7384 61.4005C31.1224 61.4005 31.5064 61.4005 31.8904 61.4005C32.2744 61.3578 32.6584 61.3365 33.0424 61.3365ZM45.6504 40.0245C45.6504 37.5925 45.373 35.0752 44.8184 32.4725C44.2637 29.8272 43.3677 27.3952 42.1304 25.1765C40.893 22.9152 39.2504 21.0805 37.2024 19.6725C35.197 18.2645 32.7224 17.5605 29.7784 17.5605C27.5597 17.5605 25.597 18.0512 23.8904 19.0325C22.1837 19.9712 20.733 21.2512 19.5384 22.8725C18.3437 24.4512 17.3624 26.2218 16.5944 28.1845C15.869 30.1472 15.3357 32.1525 14.9944 34.2005C14.653 36.2485 14.4824 38.1898 14.4824 40.0245C14.4824 42.3285 14.6744 44.6539 15.0584 47.0005C15.485 49.3472 16.2957 51.5232 17.4904 53.5285C18.3437 52.1205 19.453 50.8405 20.8184 49.6885C22.1837 48.4939 23.741 47.8965 25.4904 47.8965C27.1117 47.8965 28.4557 48.2592 29.5224 48.9845C30.6317 49.6672 31.6557 50.6272 32.5944 51.8645C33.5757 53.0592 34.4717 54.3179 35.2824 55.6405C36.093 56.9205 36.9037 58.2219 37.7144 59.5445C38.269 59.0752 38.8237 58.6272 39.3784 58.2005C39.933 57.7738 40.445 57.2832 40.9144 56.7285C42.9197 54.4672 44.1997 51.8432 44.7544 48.8565C45.3517 45.8699 45.6504 42.9258 45.6504 40.0245ZM55.5704 66.2645C55.5704 66.3925 55.4637 66.5845 55.2504 66.8405C55.0797 67.0965 54.9517 67.2672 54.8664 67.3525C53.9277 68.5045 52.797 69.4218 51.4744 70.1045C50.1944 70.7872 48.8077 71.1285 47.3144 71.1285C45.1384 71.1285 43.2824 70.7872 41.7464 70.1045C40.2104 69.4218 38.845 68.4619 37.6504 67.2245C36.4557 65.9872 35.2397 64.5365 34.0024 62.8725C33.3624 62.9152 32.7224 62.9792 32.0824 63.0645C31.485 63.1072 30.8664 63.1285 30.2264 63.1285C26.941 63.1285 23.9117 62.5312 21.1384 61.3365C18.365 60.1418 15.9544 58.4779 13.9064 56.3445C11.901 54.2112 10.3437 51.7365 9.23435 48.9205C8.12502 46.1045 7.57035 43.0752 7.57035 39.8325C7.57035 36.5045 8.10369 33.3898 9.17035 30.4885C10.237 27.5445 11.773 24.9632 13.7784 22.7445C15.7837 20.5258 18.173 18.7978 20.9464 17.5605C23.7624 16.2805 26.8984 15.6405 30.3544 15.6405C35.261 15.6405 39.3784 16.7072 42.7064 18.8405C46.0344 20.9738 48.5517 23.8752 50.2584 27.5445C52.0077 31.2138 52.8824 35.3739 52.8824 40.0245C52.8824 43.0112 52.3277 45.9125 51.2184 48.7285C50.109 51.5445 48.5304 54.0832 46.4824 56.3445C44.4344 58.5632 42.0237 60.2698 39.2504 61.4645C40.7437 63.2992 42.301 64.8139 43.9224 66.0085C45.5437 67.2458 47.5917 67.8645 50.0664 67.8645C50.3224 67.8645 50.749 67.8005 51.3464 67.6725C51.9864 67.5445 52.5837 67.3525 53.1384 67.0965C53.7357 66.8832 54.0984 66.6699 54.2264 66.4565L54.5464 66.1365C54.6317 66.0512 54.717 65.9659 54.8024 65.8805C54.8877 65.7952 54.9517 65.7525 54.9944 65.7525C55.3784 65.7525 55.5704 65.9232 55.5704 66.2645Z" fill="#431183"/>
</svg>
