<svg width="199" height="56" viewBox="0 0 199 56" fill="none" xmlns="http://www.w3.org/2000/svg">
<path d="M25.1513 45.696C24.8953 45.2267 24.49 44.5227 23.9353 43.584C23.4233 42.6027 22.8473 41.6 22.2073 40.576C21.61 39.5094 21.0126 38.5707 20.4153 37.76C19.818 36.9067 19.3273 36.352 18.9433 36.096C18.5593 35.7974 18.1753 35.6054 17.7913 35.52C17.45 35.4347 17.0446 35.392 16.5753 35.392C15.9353 35.392 15.274 35.6694 14.5913 36.224C13.9086 36.736 13.3326 37.376 12.8633 38.144C12.394 38.8694 12.0953 39.552 11.9673 40.192C12.5646 41.1307 13.546 42.0267 14.9113 42.88C16.2766 43.7334 17.7273 44.4374 19.2633 44.992C20.842 45.504 22.186 45.76 23.2953 45.76C23.594 45.76 23.8926 45.76 24.1913 45.76C24.5326 45.7174 24.8526 45.696 25.1513 45.696ZM37.6953 24.576C37.6953 22.2294 37.418 19.776 36.8633 17.216C36.3513 14.656 35.4766 12.2667 34.2393 10.048C33.0446 7.7867 31.466 5.97337 29.5033 4.60803C27.5406 3.20003 25.1513 2.49603 22.3353 2.49603C20.1593 2.49603 18.2606 2.96537 16.6393 3.90403C15.018 4.8427 13.6313 6.1227 12.4793 7.74403C11.3273 9.3227 10.3886 11.072 9.6633 12.992C8.98063 14.912 8.46863 16.896 8.1273 18.944C7.78596 20.9494 7.6153 22.8267 7.6153 24.576C7.6153 26.6667 7.7433 28.864 7.9993 31.168C8.29797 33.472 8.98063 35.5627 10.0473 37.44C10.986 36.0747 12.1166 34.9014 13.4393 33.92C14.8046 32.9387 16.362 32.448 18.1113 32.448C19.818 32.448 21.226 32.7894 22.3353 33.472C23.4873 34.1547 24.554 35.136 25.5353 36.416C26.4313 37.5254 27.2633 38.6774 28.0313 39.872C28.842 41.024 29.61 42.2187 30.3353 43.456C30.8046 43.072 31.274 42.688 31.7433 42.304C32.2126 41.8774 32.6606 41.4507 33.0873 41.024C34.41 39.5734 35.3913 37.9307 36.0313 36.096C36.714 34.2614 37.162 32.3627 37.3753 30.4C37.5886 28.3947 37.6953 26.4534 37.6953 24.576ZM48.3833 50.432C48.3833 50.56 48.298 50.752 48.1273 51.008C47.9566 51.3067 47.8286 51.4987 47.7433 51.584C46.762 52.7787 45.5886 53.696 44.2233 54.336C42.9006 55.0187 41.45 55.36 39.8713 55.36C37.6526 55.36 35.754 55.0614 34.1753 54.464C32.5966 53.9094 31.1886 53.0347 29.9513 51.84C28.7566 50.688 27.5193 49.2587 26.2393 47.552C25.6846 47.5947 25.1086 47.6374 24.5113 47.68C23.9566 47.7227 23.402 47.744 22.8473 47.744C19.5193 47.744 16.4473 47.1467 13.6313 45.952C10.858 44.7574 8.4473 43.1147 6.3993 41.024C4.39396 38.8907 2.8153 36.416 1.6633 33.6C0.553965 30.784 -0.000701904 27.7334 -0.000701904 24.448C-0.000701904 21.0347 0.532632 17.8774 1.5993 14.976C2.70863 12.0747 4.26597 9.53603 6.2713 7.36003C8.27663 5.14137 10.6873 3.4347 13.5033 2.24003C16.3193 1.0027 19.4766 0.384033 22.9753 0.384033C27.882 0.384033 32.0206 1.42937 35.3913 3.52003C38.762 5.56803 41.322 8.40537 43.0713 12.032C44.8206 15.6587 45.6953 19.84 45.6953 24.576C45.6953 27.5627 45.1193 30.4427 43.9673 33.216C42.858 35.9467 41.2793 38.4 39.2313 40.576C37.226 42.752 34.8793 44.5014 32.1913 45.824C33.5993 47.5307 35.0926 48.96 36.6713 50.112C38.25 51.264 40.2126 51.84 42.5593 51.84C43.0713 51.84 43.6686 51.7334 44.3513 51.52C45.0766 51.3067 45.6526 51.0934 46.0793 50.88C46.2926 50.752 46.506 50.5387 46.7193 50.24C46.9326 49.984 47.1886 49.856 47.4873 49.856C47.658 49.856 47.85 49.8987 48.0633 49.984C48.2766 50.112 48.3833 50.2614 48.3833 50.432Z" fill="#F0B418"/>
<path d="M89.1713 46.016C89.1713 46.5707 88.766 46.9974 87.9553 47.296C87.1873 47.5947 86.334 47.808 85.3953 47.936C84.4993 48.0214 83.838 48.064 83.4113 48.064C81.9606 48.064 80.7873 47.552 79.8913 46.528C79.038 45.504 78.3766 44.3734 77.9073 43.136C76.4566 44.8427 74.622 46.1227 72.4033 46.976C70.1846 47.8294 67.966 48.256 65.7473 48.256C61.822 48.256 59.07 47.232 57.4913 45.184C55.9553 43.136 55.1873 40.256 55.1873 36.544C55.1873 33.3867 55.1873 30.2294 55.1873 27.072C55.23 23.872 55.2726 20.672 55.3153 17.472C55.3153 16.96 55.2086 16.5547 54.9953 16.256C54.8246 15.9147 54.4406 15.744 53.8433 15.744C53.502 15.744 53.1606 15.7654 52.8193 15.808C52.478 15.8507 52.1366 15.872 51.7953 15.872C51.6246 15.872 51.4326 15.7867 51.2193 15.616C51.0486 15.4454 50.9633 15.296 50.9633 15.168C50.9633 14.784 51.0486 14.5494 51.2193 14.464C51.39 14.3787 51.646 14.3147 51.9873 14.272C52.414 14.1867 52.8406 14.144 53.2673 14.144C53.694 14.144 54.1206 14.1227 54.5473 14.08C55.3153 13.9947 56.062 13.9307 56.7873 13.888C57.5553 13.8454 58.3233 13.8027 59.0913 13.76C59.4326 13.7174 59.774 13.6747 60.1153 13.632C60.4566 13.5894 60.798 13.568 61.1393 13.568C61.3526 13.568 61.5446 13.76 61.7153 14.144C61.886 14.4854 61.9713 14.7627 61.9713 14.976C61.9713 18.6454 61.9286 22.336 61.8433 26.048C61.758 29.7174 61.7153 33.3867 61.7153 37.056C61.7153 37.8667 61.7366 38.72 61.7793 39.616C61.822 40.512 61.9926 41.344 62.2913 42.112C62.7606 43.264 63.5926 44.0747 64.7873 44.544C66.0246 45.0134 67.2193 45.248 68.3713 45.248C69.6086 45.248 70.8673 45.0134 72.1473 44.544C73.47 44.032 74.6006 43.3067 75.5393 42.368C76.478 41.4294 77.0113 40.2774 77.1393 38.912C77.2246 38.1014 77.2673 37.2907 77.2673 36.48C77.2673 35.6267 77.2673 34.7947 77.2673 33.984V17.28C77.2673 16.8534 77.118 16.512 76.8193 16.256C76.5633 16 76.222 15.872 75.7953 15.872C75.3686 15.872 74.942 15.8934 74.5153 15.936C74.1313 15.9787 73.726 16 73.2993 16C72.6593 16 72.3393 15.7227 72.3393 15.168C72.3393 14.8694 72.4033 14.6774 72.5313 14.592C72.702 14.464 72.9153 14.3787 73.1713 14.336C73.6833 14.2507 74.2166 14.208 74.7713 14.208C75.326 14.1654 75.8806 14.1227 76.4353 14.08C77.374 13.9947 78.462 13.8667 79.6993 13.696C80.9366 13.5254 81.982 13.44 82.8353 13.44C83.0486 13.44 83.262 13.568 83.4753 13.824C83.7313 14.08 83.838 14.3147 83.7953 14.528C83.7526 19.0934 83.71 23.68 83.6673 28.288C83.6246 32.896 83.6033 37.504 83.6033 42.112C83.6033 43.0507 83.8166 43.8614 84.2433 44.544C84.67 45.2267 85.4166 45.568 86.4833 45.568C86.8246 45.568 87.166 45.5254 87.5073 45.44C87.8486 45.312 88.19 45.248 88.5313 45.248C88.958 45.248 89.1713 45.504 89.1713 46.016Z" fill="#F0B418"/>
<path d="M114.831 25.344C114.831 24.1494 114.767 22.9547 114.639 21.76C114.553 20.5654 114.297 19.4774 113.871 18.496C113.487 17.472 112.868 16.6614 112.015 16.064C111.161 15.424 109.967 15.104 108.431 15.104C106.511 15.104 104.953 15.6374 103.759 16.704C102.607 17.7707 101.711 19.1147 101.071 20.736C100.431 22.3147 99.9615 23.8934 99.6628 25.472C100.601 25.5147 101.54 25.5574 102.479 25.6C103.46 25.6 104.42 25.6 105.359 25.6C106.937 25.6 108.516 25.5787 110.095 25.536C111.673 25.4507 113.252 25.3867 114.831 25.344ZM123.023 40.192C123.023 40.32 122.98 40.4694 122.895 40.64C122.681 41.024 122.297 41.5147 121.743 42.112C121.188 42.6667 120.591 43.2 119.951 43.712C119.353 44.224 118.863 44.6294 118.479 44.928C117.028 45.952 115.428 46.7627 113.679 47.36C111.929 47.9147 110.159 48.192 108.367 48.192C106.873 48.192 105.252 47.9574 103.503 47.488C101.796 46.976 100.303 46.3147 99.0228 45.504C96.6335 43.9254 94.8841 41.8774 93.7748 39.36C92.7081 36.8 92.1748 34.1334 92.1748 31.36C92.1748 28.2027 92.7935 25.2587 94.0308 22.528C95.2681 19.7974 97.2521 17.5787 99.9828 15.872C101.22 15.104 102.628 14.4854 104.207 14.016C105.785 13.5467 107.3 13.312 108.751 13.312C111.311 13.312 113.551 13.824 115.471 14.848C117.433 15.872 118.969 17.344 120.079 19.264C121.188 21.1414 121.743 23.3814 121.743 25.984C121.743 26.7947 121.529 27.3067 121.103 27.52C120.719 27.6907 120.164 27.776 119.439 27.776C118.585 27.776 117.732 27.7547 116.879 27.712C116.025 27.6694 115.172 27.6267 114.319 27.584C113.167 27.5414 112.015 27.52 110.863 27.52C109.753 27.4774 108.644 27.456 107.535 27.456C106.169 27.456 104.783 27.456 103.375 27.456C102.009 27.456 100.644 27.4774 99.2788 27.52C99.2361 28.2027 99.1935 28.864 99.1508 29.504C99.1081 30.144 99.0868 30.8054 99.0868 31.488C99.0868 32.9814 99.2575 34.56 99.5988 36.224C99.9401 37.8454 100.473 39.36 101.199 40.768C101.967 42.176 102.969 43.328 104.207 44.224C105.444 45.12 106.98 45.568 108.815 45.568C110.692 45.568 112.463 45.2907 114.127 44.736C115.791 44.1814 117.327 43.2854 118.735 42.048C119.161 41.664 119.524 41.2587 119.823 40.832C120.164 40.4054 120.505 39.9787 120.847 39.552C121.103 39.2107 121.444 39.04 121.871 39.04C122.169 39.04 122.425 39.168 122.639 39.424C122.895 39.6374 123.023 39.8934 123.023 40.192Z" fill="#F0B418"/>
<path d="M149.706 25.344C149.706 24.1494 149.642 22.9547 149.514 21.76C149.428 20.5654 149.172 19.4774 148.746 18.496C148.362 17.472 147.743 16.6614 146.89 16.064C146.036 15.424 144.842 15.104 143.306 15.104C141.386 15.104 139.828 15.6374 138.634 16.704C137.482 17.7707 136.586 19.1147 135.946 20.736C135.306 22.3147 134.836 23.8934 134.538 25.472C135.476 25.5147 136.415 25.5574 137.354 25.6C138.335 25.6 139.295 25.6 140.234 25.6C141.812 25.6 143.391 25.5787 144.97 25.536C146.548 25.4507 148.127 25.3867 149.706 25.344ZM157.898 40.192C157.898 40.32 157.855 40.4694 157.77 40.64C157.556 41.024 157.172 41.5147 156.618 42.112C156.063 42.6667 155.466 43.2 154.826 43.712C154.228 44.224 153.738 44.6294 153.354 44.928C151.903 45.952 150.303 46.7627 148.554 47.36C146.804 47.9147 145.034 48.192 143.242 48.192C141.748 48.192 140.127 47.9574 138.378 47.488C136.671 46.976 135.178 46.3147 133.898 45.504C131.508 43.9254 129.759 41.8774 128.65 39.36C127.583 36.8 127.05 34.1334 127.05 31.36C127.05 28.2027 127.668 25.2587 128.906 22.528C130.143 19.7974 132.127 17.5787 134.858 15.872C136.095 15.104 137.503 14.4854 139.082 14.016C140.66 13.5467 142.175 13.312 143.626 13.312C146.186 13.312 148.426 13.824 150.346 14.848C152.308 15.872 153.844 17.344 154.954 19.264C156.063 21.1414 156.618 23.3814 156.618 25.984C156.618 26.7947 156.404 27.3067 155.978 27.52C155.594 27.6907 155.039 27.776 154.314 27.776C153.46 27.776 152.607 27.7547 151.754 27.712C150.9 27.6694 150.047 27.6267 149.194 27.584C148.042 27.5414 146.89 27.52 145.738 27.52C144.628 27.4774 143.519 27.456 142.41 27.456C141.044 27.456 139.658 27.456 138.25 27.456C136.884 27.456 135.519 27.4774 134.154 27.52C134.111 28.2027 134.068 28.864 134.026 29.504C133.983 30.144 133.962 30.8054 133.962 31.488C133.962 32.9814 134.132 34.56 134.474 36.224C134.815 37.8454 135.348 39.36 136.074 40.768C136.842 42.176 137.844 43.328 139.082 44.224C140.319 45.12 141.855 45.568 143.69 45.568C145.567 45.568 147.338 45.2907 149.002 44.736C150.666 44.1814 152.202 43.2854 153.61 42.048C154.036 41.664 154.399 41.2587 154.698 40.832C155.039 40.4054 155.38 39.9787 155.722 39.552C155.978 39.2107 156.319 39.04 156.746 39.04C157.044 39.04 157.3 39.168 157.514 39.424C157.77 39.6374 157.898 39.8934 157.898 40.192Z" fill="#F0B418"/>
<path d="M198.853 47.104C198.853 47.488 198.725 47.744 198.469 47.872C198.213 48 197.914 48.064 197.573 48.064C196.25 48.064 194.906 48.0427 193.541 48C192.175 47.9574 190.81 47.936 189.445 47.936C188.378 47.936 187.269 47.9574 186.117 48C185.007 48.0427 183.898 48.064 182.789 48.064C182.618 48.064 182.447 47.9574 182.277 47.744C182.106 47.5307 182.021 47.3387 182.021 47.168C182.021 46.6134 182.234 46.2934 182.661 46.208C183.13 46.1227 183.578 46.1014 184.005 46.144C184.474 46.1867 184.922 46.208 185.349 46.208C186.458 46.208 187.034 45.6534 187.077 44.544C187.162 43.5627 187.183 42.5814 187.141 41.6C187.141 40.6187 187.141 39.6587 187.141 38.72V30.784C187.141 29.888 187.119 28.6934 187.077 27.2C187.077 25.664 187.034 24.1707 186.949 22.72C186.863 21.2267 186.693 20.096 186.437 19.328C185.711 17.152 184.261 16.064 182.085 16.064C180.805 16.064 179.738 16.256 178.885 16.64C178.074 16.9814 177.135 17.5147 176.069 18.24C175.429 18.7094 174.789 19.2214 174.149 19.776C173.551 20.3307 172.997 20.928 172.485 21.568C172.485 25.408 172.485 29.248 172.485 33.088C172.485 36.8854 172.485 40.6827 172.485 44.48C172.485 45.0347 172.719 45.4614 173.189 45.76C173.658 46.016 174.127 46.144 174.597 46.144C174.938 46.144 175.258 46.1227 175.557 46.08C175.898 46.0374 176.218 46.016 176.517 46.016C176.687 46.016 176.858 46.1227 177.029 46.336C177.199 46.5494 177.285 46.7414 177.285 46.912C177.285 47.2107 177.157 47.4667 176.901 47.68C176.687 47.8507 176.453 47.936 176.197 47.936C174.874 47.936 173.551 47.9147 172.229 47.872C170.906 47.8294 169.583 47.808 168.261 47.808C167.194 47.808 166.127 47.8294 165.061 47.872C163.994 47.9147 162.927 47.936 161.861 47.936C161.605 47.936 161.391 47.8507 161.221 47.68C161.05 47.4667 160.965 47.2534 160.965 47.04C160.965 46.5707 161.178 46.2934 161.605 46.208C162.031 46.08 162.501 46.0374 163.013 46.08C163.525 46.1227 163.93 46.144 164.229 46.144C165.253 46.144 165.807 45.5894 165.893 44.48C165.935 43.8827 165.957 43.2854 165.957 42.688C165.957 42.0907 165.957 41.5147 165.957 40.96C165.957 37.2907 165.935 33.6 165.893 29.888C165.893 26.176 165.871 22.464 165.829 18.752C165.829 18.2827 165.743 17.7494 165.573 17.152C165.402 16.5547 165.018 16.256 164.421 16.256C163.866 16.256 163.333 16.3414 162.821 16.512C162.309 16.6827 161.775 16.768 161.221 16.768C160.666 16.768 160.389 16.512 160.389 16C160.389 15.7014 160.431 15.5094 160.517 15.424C160.602 15.3387 160.794 15.2747 161.093 15.232C161.861 15.0187 162.65 14.8694 163.461 14.784C164.271 14.656 165.082 14.5067 165.893 14.336C166.618 14.1654 167.343 13.9947 168.069 13.824C168.794 13.6107 169.519 13.504 170.245 13.504C170.757 13.504 171.119 13.6534 171.333 13.952C171.546 14.2507 171.695 14.72 171.781 15.36C171.909 16 171.994 16.64 172.037 17.28C172.122 17.92 172.165 18.432 172.165 18.816C173.573 17.4934 175.237 16.2774 177.157 15.168C179.077 14.016 181.018 13.44 182.981 13.44C184.474 13.44 185.967 13.6107 187.461 13.952C188.954 14.2934 190.234 14.9334 191.301 15.872C192.41 16.768 193.093 18.0907 193.349 19.84C193.434 20.5654 193.519 21.3334 193.605 22.144C193.69 22.912 193.733 23.6587 193.733 24.384C193.733 27.712 193.733 31.04 193.733 34.368C193.733 37.696 193.733 41.024 193.733 44.352C193.733 45.0774 193.925 45.568 194.309 45.824C194.693 46.08 195.226 46.208 195.909 46.208C196.25 46.208 196.57 46.1867 196.869 46.144C197.21 46.1014 197.551 46.08 197.893 46.08C198.149 46.08 198.362 46.208 198.533 46.464C198.746 46.6774 198.853 46.8907 198.853 47.104Z" fill="#F0B418"/>
</svg>
