<svg width="204" height="72" viewBox="0 0 204 72" fill="none" xmlns="http://www.w3.org/2000/svg">
<path d="M14.7907 8.30714C13.0595 9.23064 10.9294 8.64846 10.0572 7.01341C9.16535 5.3415 9.88786 3.28501 11.6191 2.36151C13.3503 1.43801 15.4607 1.98333 16.3526 3.65524C17.2248 5.29029 16.5219 7.38364 14.7907 8.30714ZM1.58437 13.7755C2.9618 13.0407 4.63818 13.5304 5.33213 14.8313C6.04574 16.1691 5.49909 17.7972 4.12166 18.532C2.7052 19.2876 1.00945 18.8556 0.295836 17.5178C-0.398113 16.2169 0.167913 14.5311 1.58437 13.7755ZM26.7659 0.3428C28.1433 -0.391968 29.8197 0.0976995 30.5136 1.3986C31.2272 2.73637 30.6806 4.36454 29.3031 5.09931C27.8867 5.8549 26.1909 5.42291 25.4773 4.08514C24.7834 2.78424 25.3494 1.09839 26.7659 0.3428ZM13.1011 28.7314L5.26723 19.0665C5.83714 18.6189 6.2494 17.9698 6.52301 17.3457C8.41611 17.7687 10.644 17.9642 12.2178 17.1246C14.1064 16.1172 14.174 12.548 14.008 9.67781C14.4215 9.60086 14.9142 9.48159 15.3083 9.27137C15.7024 9.06115 16.0746 8.719 16.37 8.41782C18.662 10.1555 21.6634 12.086 23.552 11.0786C25.1258 10.239 26.2043 8.27983 26.9074 6.47197C27.5781 6.59231 28.3469 6.61146 29.036 6.38742L32.6999 18.2767L13.1011 28.7314Z" fill="#F0B418"/>
<path d="M33.0424 61.3365C32.7864 60.8245 32.381 60.0992 31.8264 59.1605C31.3144 58.1792 30.717 57.1552 30.0344 56.0885C29.3944 54.9792 28.7757 53.9978 28.1784 53.1445C27.6237 52.2485 27.1544 51.6725 26.7704 51.4165C26.301 51.0752 25.853 50.8618 25.4264 50.7765C25.0424 50.6912 24.573 50.6485 24.0184 50.6485C23.293 50.6485 22.5464 50.9258 21.7784 51.4805C21.053 51.9925 20.4344 52.6325 19.9224 53.4005C19.4104 54.1685 19.0904 54.9152 18.9624 55.6405C19.6024 56.6219 20.6264 57.5605 22.0344 58.4565C23.485 59.3525 24.9997 60.0779 26.5784 60.6325C28.1997 61.1445 29.5864 61.4005 30.7384 61.4005C31.1224 61.4005 31.5064 61.4005 31.8904 61.4005C32.2744 61.3578 32.6584 61.3365 33.0424 61.3365ZM45.6504 40.0245C45.6504 37.5925 45.373 35.0752 44.8184 32.4725C44.2637 29.8272 43.3677 27.3952 42.1304 25.1765C40.893 22.9152 39.2504 21.0805 37.2024 19.6725C35.197 18.2645 32.7224 17.5605 29.7784 17.5605C27.5597 17.5605 25.597 18.0512 23.8904 19.0325C22.1837 19.9712 20.733 21.2512 19.5384 22.8725C18.3437 24.4512 17.3624 26.2218 16.5944 28.1845C15.869 30.1472 15.3357 32.1525 14.9944 34.2005C14.653 36.2485 14.4824 38.1898 14.4824 40.0245C14.4824 42.3285 14.6744 44.6539 15.0584 47.0005C15.485 49.3472 16.2957 51.5232 17.4904 53.5285C18.3437 52.1205 19.453 50.8405 20.8184 49.6885C22.1837 48.4939 23.741 47.8965 25.4904 47.8965C27.1117 47.8965 28.4557 48.2592 29.5224 48.9845C30.6317 49.6672 31.6557 50.6272 32.5944 51.8645C33.5757 53.0592 34.4717 54.3179 35.2824 55.6405C36.093 56.9205 36.9037 58.2219 37.7144 59.5445C38.269 59.0752 38.8237 58.6272 39.3784 58.2005C39.933 57.7738 40.445 57.2832 40.9144 56.7285C42.9197 54.4672 44.1997 51.8432 44.7544 48.8565C45.3517 45.8699 45.6504 42.9258 45.6504 40.0245ZM55.5704 66.2645C55.5704 66.3925 55.4637 66.5845 55.2504 66.8405C55.0797 67.0965 54.9517 67.2672 54.8664 67.3525C53.9277 68.5045 52.797 69.4218 51.4744 70.1045C50.1944 70.7872 48.8077 71.1285 47.3144 71.1285C45.1384 71.1285 43.2824 70.7872 41.7464 70.1045C40.2104 69.4218 38.845 68.4619 37.6504 67.2245C36.4557 65.9872 35.2397 64.5365 34.0024 62.8725C33.3624 62.9152 32.7224 62.9792 32.0824 63.0645C31.485 63.1072 30.8664 63.1285 30.2264 63.1285C26.941 63.1285 23.9117 62.5312 21.1384 61.3365C18.365 60.1418 15.9544 58.4779 13.9064 56.3445C11.901 54.2112 10.3437 51.7365 9.23435 48.9205C8.12502 46.1045 7.57035 43.0752 7.57035 39.8325C7.57035 36.5045 8.10369 33.3898 9.17035 30.4885C10.237 27.5445 11.773 24.9632 13.7784 22.7445C15.7837 20.5258 18.173 18.7978 20.9464 17.5605C23.7624 16.2805 26.8984 15.6405 30.3544 15.6405C35.261 15.6405 39.3784 16.7072 42.7064 18.8405C46.0344 20.9738 48.5517 23.8752 50.2584 27.5445C52.0077 31.2138 52.8824 35.3739 52.8824 40.0245C52.8824 43.0112 52.3277 45.9125 51.2184 48.7285C50.109 51.5445 48.5304 54.0832 46.4824 56.3445C44.4344 58.5632 42.0237 60.2698 39.2504 61.4645C40.7437 63.2992 42.301 64.8139 43.9224 66.0085C45.5437 67.2458 47.5917 67.8645 50.0664 67.8645C50.3224 67.8645 50.749 67.8005 51.3464 67.6725C51.9864 67.5445 52.5837 67.3525 53.1384 67.0965C53.7357 66.8832 54.0984 66.6699 54.2264 66.4565L54.5464 66.1365C54.6317 66.0512 54.717 65.9659 54.8024 65.8805C54.8877 65.7952 54.9517 65.7525 54.9944 65.7525C55.3784 65.7525 55.5704 65.9232 55.5704 66.2645Z" fill="#F0B418"/>
<path d="M93.936 62.016C93.936 62.5707 93.5307 62.9973 92.72 63.296C91.952 63.5947 91.0987 63.808 90.16 63.936C89.264 64.0213 88.6027 64.064 88.176 64.064C86.7253 64.064 85.552 63.552 84.656 62.528C83.8027 61.504 83.1413 60.3733 82.672 59.136C81.2213 60.8427 79.3867 62.1227 77.168 62.976C74.9493 63.8293 72.7307 64.256 70.512 64.256C66.5867 64.256 63.8347 63.232 62.256 61.184C60.72 59.136 59.952 56.256 59.952 52.544C59.952 49.3867 59.952 46.2293 59.952 43.072C59.9947 39.872 60.0373 36.672 60.08 33.472C60.08 32.96 59.9733 32.5547 59.76 32.256C59.5893 31.9147 59.2053 31.744 58.608 31.744C58.2667 31.744 57.9253 31.7653 57.584 31.808C57.2427 31.8507 56.9013 31.872 56.56 31.872C56.3893 31.872 56.1973 31.7867 55.984 31.616C55.8133 31.4453 55.728 31.296 55.728 31.168C55.728 30.784 55.8133 30.5493 55.984 30.464C56.1547 30.3787 56.4107 30.3147 56.752 30.272C57.1787 30.1867 57.6053 30.144 58.032 30.144C58.4587 30.144 58.8853 30.1227 59.312 30.08C60.08 29.9947 60.8267 29.9307 61.552 29.888C62.32 29.8453 63.088 29.8027 63.856 29.76C64.1973 29.7173 64.5387 29.6747 64.88 29.632C65.2213 29.5893 65.5627 29.568 65.904 29.568C66.1173 29.568 66.3093 29.76 66.48 30.144C66.6507 30.4853 66.736 30.7627 66.736 30.976C66.736 34.6453 66.6933 38.336 66.608 42.048C66.5227 45.7173 66.48 49.3867 66.48 53.056C66.48 53.8667 66.5013 54.72 66.544 55.616C66.5867 56.512 66.7573 57.344 67.056 58.112C67.5253 59.264 68.3573 60.0747 69.552 60.544C70.7893 61.0133 71.984 61.248 73.136 61.248C74.3733 61.248 75.632 61.0133 76.912 60.544C78.2347 60.032 79.3653 59.3067 80.304 58.368C81.2427 57.4293 81.776 56.2773 81.904 54.912C81.9893 54.1013 82.032 53.2907 82.032 52.48C82.032 51.6267 82.032 50.7947 82.032 49.984V33.28C82.032 32.8533 81.8827 32.512 81.584 32.256C81.328 32 80.9867 31.872 80.56 31.872C80.1333 31.872 79.7067 31.8933 79.28 31.936C78.896 31.9787 78.4907 32 78.064 32C77.424 32 77.104 31.7227 77.104 31.168C77.104 30.8693 77.168 30.6773 77.296 30.592C77.4667 30.464 77.68 30.3787 77.936 30.336C78.448 30.2507 78.9813 30.208 79.536 30.208C80.0907 30.1653 80.6453 30.1227 81.2 30.08C82.1387 29.9947 83.2267 29.8667 84.464 29.696C85.7013 29.5253 86.7467 29.44 87.6 29.44C87.8133 29.44 88.0267 29.568 88.24 29.824C88.496 30.08 88.6027 30.3147 88.56 30.528C88.5173 35.0933 88.4747 39.68 88.432 44.288C88.3893 48.896 88.368 53.504 88.368 58.112C88.368 59.0507 88.5813 59.8613 89.008 60.544C89.4347 61.2267 90.1813 61.568 91.248 61.568C91.5893 61.568 91.9307 61.5253 92.272 61.44C92.6133 61.312 92.9547 61.248 93.296 61.248C93.7227 61.248 93.936 61.504 93.936 62.016Z" fill="#F0B418"/>
<path d="M119.595 41.344C119.595 40.1493 119.532 38.9547 119.404 37.76C119.318 36.5653 119.062 35.4773 118.635 34.496C118.251 33.472 117.633 32.6613 116.78 32.064C115.926 31.424 114.732 31.104 113.196 31.104C111.276 31.104 109.718 31.6373 108.523 32.704C107.371 33.7707 106.476 35.1147 105.836 36.736C105.196 38.3147 104.726 39.8933 104.427 41.472C105.366 41.5147 106.305 41.5573 107.243 41.6C108.225 41.6 109.185 41.6 110.123 41.6C111.702 41.6 113.281 41.5787 114.859 41.536C116.438 41.4507 118.017 41.3867 119.595 41.344ZM127.787 56.192C127.787 56.32 127.745 56.4693 127.66 56.64C127.446 57.024 127.062 57.5147 126.507 58.112C125.953 58.6667 125.355 59.2 124.715 59.712C124.118 60.224 123.628 60.6293 123.243 60.928C121.793 61.952 120.193 62.7627 118.443 63.36C116.694 63.9147 114.924 64.192 113.132 64.192C111.638 64.192 110.017 63.9573 108.268 63.488C106.561 62.976 105.067 62.3147 103.787 61.504C101.398 59.9253 99.6488 57.8773 98.5395 55.36C97.4728 52.8 96.9395 50.1333 96.9395 47.36C96.9395 44.2027 97.5582 41.2587 98.7955 38.528C100.033 35.7973 102.017 33.5787 104.747 31.872C105.985 31.104 107.393 30.4853 108.971 30.016C110.55 29.5467 112.065 29.312 113.516 29.312C116.076 29.312 118.315 29.824 120.235 30.848C122.198 31.872 123.734 33.344 124.843 35.264C125.953 37.1413 126.507 39.3813 126.507 41.984C126.507 42.7947 126.294 43.3067 125.868 43.52C125.483 43.6907 124.929 43.776 124.203 43.776C123.35 43.776 122.497 43.7547 121.644 43.712C120.79 43.6693 119.937 43.6267 119.084 43.584C117.932 43.5413 116.78 43.52 115.628 43.52C114.518 43.4773 113.409 43.456 112.299 43.456C110.934 43.456 109.548 43.456 108.14 43.456C106.774 43.456 105.409 43.4773 104.044 43.52C104.001 44.2027 103.958 44.864 103.915 45.504C103.873 46.144 103.852 46.8053 103.852 47.488C103.852 48.9813 104.022 50.56 104.364 52.224C104.705 53.8453 105.238 55.36 105.964 56.768C106.731 58.176 107.734 59.328 108.971 60.224C110.209 61.12 111.745 61.568 113.579 61.568C115.457 61.568 117.228 61.2907 118.892 60.736C120.556 60.1813 122.092 59.2853 123.5 58.048C123.926 57.664 124.289 57.2587 124.588 56.832C124.929 56.4053 125.27 55.9787 125.612 55.552C125.868 55.2107 126.209 55.04 126.635 55.04C126.934 55.04 127.19 55.168 127.404 55.424C127.66 55.6373 127.787 55.8933 127.787 56.192Z" fill="#F0B418"/>
<path d="M154.471 41.344C154.471 40.1493 154.407 38.9547 154.279 37.76C154.193 36.5653 153.937 35.4773 153.51 34.496C153.126 33.472 152.508 32.6613 151.654 32.064C150.801 31.424 149.606 31.104 148.07 31.104C146.15 31.104 144.593 31.6373 143.398 32.704C142.247 33.7707 141.35 35.1147 140.71 36.736C140.07 38.3147 139.601 39.8933 139.303 41.472C140.241 41.5147 141.18 41.5573 142.118 41.6C143.1 41.6 144.06 41.6 144.999 41.6C146.577 41.6 148.156 41.5787 149.734 41.536C151.313 41.4507 152.892 41.3867 154.471 41.344ZM162.663 56.192C162.663 56.32 162.62 56.4693 162.535 56.64C162.321 57.024 161.937 57.5147 161.382 58.112C160.828 58.6667 160.23 59.2 159.59 59.712C158.993 60.224 158.503 60.6293 158.118 60.928C156.668 61.952 155.068 62.7627 153.318 63.36C151.569 63.9147 149.799 64.192 148.007 64.192C146.513 64.192 144.892 63.9573 143.143 63.488C141.436 62.976 139.943 62.3147 138.663 61.504C136.273 59.9253 134.524 57.8773 133.415 55.36C132.348 52.8 131.814 50.1333 131.814 47.36C131.814 44.2027 132.433 41.2587 133.671 38.528C134.908 35.7973 136.892 33.5787 139.622 31.872C140.86 31.104 142.268 30.4853 143.846 30.016C145.425 29.5467 146.94 29.312 148.391 29.312C150.951 29.312 153.191 29.824 155.111 30.848C157.073 31.872 158.609 33.344 159.719 35.264C160.828 37.1413 161.382 39.3813 161.382 41.984C161.382 42.7947 161.169 43.3067 160.743 43.52C160.359 43.6907 159.804 43.776 159.079 43.776C158.225 43.776 157.372 43.7547 156.518 43.712C155.665 43.6693 154.812 43.6267 153.958 43.584C152.806 43.5413 151.655 43.52 150.503 43.52C149.393 43.4773 148.284 43.456 147.174 43.456C145.809 43.456 144.423 43.456 143.014 43.456C141.649 43.456 140.284 43.4773 138.919 43.52C138.876 44.2027 138.833 44.864 138.79 45.504C138.748 46.144 138.727 46.8053 138.727 47.488C138.727 48.9813 138.897 50.56 139.238 52.224C139.58 53.8453 140.113 55.36 140.839 56.768C141.607 58.176 142.609 59.328 143.846 60.224C145.084 61.12 146.62 61.568 148.454 61.568C150.332 61.568 152.102 61.2907 153.766 60.736C155.43 60.1813 156.966 59.2853 158.374 58.048C158.801 57.664 159.164 57.2587 159.462 56.832C159.804 56.4053 160.145 55.9787 160.486 55.552C160.742 55.2107 161.084 55.04 161.51 55.04C161.809 55.04 162.065 55.168 162.279 55.424C162.535 55.6373 162.663 55.8933 162.663 56.192Z" fill="#F0B418"/>
<path d="M203.617 63.104C203.617 63.488 203.49 63.744 203.234 63.872C202.978 64 202.679 64.064 202.337 64.064C201.015 64.064 199.671 64.0427 198.305 64C196.94 63.9573 195.575 63.936 194.21 63.936C193.143 63.936 192.033 63.9573 190.882 64C189.772 64.0427 188.663 64.064 187.553 64.064C187.383 64.064 187.212 63.9573 187.042 63.744C186.871 63.5307 186.786 63.3387 186.786 63.168C186.786 62.6133 186.999 62.2933 187.426 62.208C187.895 62.1227 188.343 62.1013 188.77 62.144C189.239 62.1867 189.687 62.208 190.113 62.208C191.223 62.208 191.799 61.6533 191.842 60.544C191.927 59.5627 191.948 58.5813 191.906 57.6C191.906 56.6187 191.906 55.6587 191.906 54.72V46.784C191.906 45.888 191.884 44.6933 191.842 43.2C191.842 41.664 191.799 40.1707 191.714 38.72C191.628 37.2267 191.458 36.096 191.202 35.328C190.476 33.152 189.025 32.064 186.85 32.064C185.57 32.064 184.503 32.256 183.65 32.64C182.839 32.9813 181.9 33.5147 180.833 34.24C180.193 34.7093 179.553 35.2213 178.913 35.776C178.316 36.3307 177.761 36.928 177.249 37.568C177.249 41.408 177.249 45.248 177.249 49.088C177.249 52.8853 177.249 56.6827 177.249 60.48C177.249 61.0347 177.484 61.4613 177.954 61.76C178.423 62.016 178.892 62.144 179.361 62.144C179.703 62.144 180.023 62.1227 180.322 62.08C180.663 62.0373 180.983 62.016 181.281 62.016C181.452 62.016 181.623 62.1227 181.794 62.336C181.964 62.5493 182.049 62.7413 182.049 62.912C182.049 63.2107 181.921 63.4667 181.665 63.68C181.452 63.8507 181.217 63.936 180.962 63.936C179.639 63.936 178.316 63.9147 176.993 63.872C175.671 63.8293 174.348 63.808 173.025 63.808C171.959 63.808 170.892 63.8293 169.826 63.872C168.759 63.9147 167.692 63.936 166.626 63.936C166.37 63.936 166.156 63.8507 165.986 63.68C165.815 63.4667 165.73 63.2533 165.73 63.04C165.73 62.5707 165.943 62.2933 166.37 62.208C166.796 62.08 167.266 62.0373 167.777 62.08C168.289 62.1227 168.695 62.144 168.993 62.144C170.018 62.144 170.572 61.5893 170.658 60.48C170.7 59.8827 170.721 59.2853 170.721 58.688C170.721 58.0907 170.721 57.5147 170.721 56.96C170.721 53.2907 170.7 49.6 170.658 45.888C170.658 42.176 170.636 38.464 170.594 34.752C170.594 34.2827 170.508 33.7493 170.337 33.152C170.167 32.5547 169.783 32.256 169.186 32.256C168.631 32.256 168.097 32.3413 167.585 32.512C167.074 32.6827 166.54 32.768 165.986 32.768C165.431 32.768 165.154 32.512 165.154 32C165.154 31.7013 165.196 31.5093 165.281 31.424C165.367 31.3387 165.559 31.2747 165.857 31.232C166.626 31.0187 167.415 30.8693 168.225 30.784C169.036 30.656 169.847 30.5067 170.658 30.336C171.383 30.1653 172.108 29.9947 172.833 29.824C173.559 29.6107 174.284 29.504 175.01 29.504C175.521 29.504 175.884 29.6533 176.098 29.952C176.311 30.2507 176.46 30.72 176.546 31.36C176.674 32 176.759 32.64 176.801 33.28C176.887 33.92 176.93 34.432 176.93 34.816C178.338 33.4933 180.001 32.2773 181.921 31.168C183.841 30.016 185.783 29.44 187.745 29.44C189.239 29.44 190.732 29.6107 192.225 29.952C193.719 30.2933 194.999 30.9333 196.066 31.872C197.175 32.768 197.857 34.0907 198.113 35.84C198.199 36.5653 198.284 37.3333 198.37 38.144C198.455 38.912 198.497 39.6587 198.497 40.384C198.497 43.712 198.497 47.04 198.497 50.368C198.497 53.696 198.497 57.024 198.497 60.352C198.497 61.0773 198.689 61.568 199.074 61.824C199.458 62.08 199.991 62.208 200.673 62.208C201.015 62.208 201.335 62.1867 201.633 62.144C201.975 62.1013 202.316 62.08 202.658 62.08C202.913 62.08 203.127 62.208 203.298 62.464C203.511 62.6773 203.617 62.8907 203.617 63.104Z" fill="#F0B418"/>
</svg>
