<svg width="61" height="61" viewBox="0 0 61 61" fill="none" xmlns="http://www.w3.org/2000/svg">
<path fill-rule="evenodd" clip-rule="evenodd" d="M48.245 27.0957C38.576 21.3537 22.625 20.825 13.391 23.627C11.909 24.074 10.343 23.2399 9.89299 21.7549C9.44299 20.2729 10.28 18.7068 11.762 18.2568C22.361 15.0378 39.977 15.6586 51.11 22.2676C52.442 23.0596 52.88 24.7823 52.088 26.1143C51.302 27.4463 49.574 27.8877 48.245 27.0957ZM47.93 35.6006C47.252 36.7016 45.812 37.0461 44.711 36.3711C36.65 31.4151 24.356 29.981 14.819 32.876C13.58 33.248 12.275 32.5519 11.9 31.3159C11.528 30.0799 12.224 28.7744 13.46 28.3994C24.353 25.0934 37.898 26.6957 47.159 32.3867C48.26 33.0617 48.605 34.5026 47.93 35.6006ZM44.258 43.7686C43.718 44.6506 42.569 44.9296 41.687 44.3896C34.643 40.0846 25.775 39.113 15.332 41.498C14.327 41.729 13.322 41.0983 13.094 40.0903C12.863 39.0853 13.49 38.0845 14.501 37.8535C25.928 35.2405 35.729 36.3648 43.637 41.1978C44.519 41.7378 44.798 42.8866 44.258 43.7686ZM30.5 0.5C13.931 0.5 0.5 13.931 0.5 30.5C0.5 47.069 13.931 60.5 30.5 60.5C47.069 60.5 60.5 47.069 60.5 30.5C60.5 13.934 47.069 0.5 30.5 0.5Z" fill="#431183"/>
</svg>
