<svg width="61" height="61" viewBox="0 0 61 61" fill="none" xmlns="http://www.w3.org/2000/svg">
<g clip-path="url(#clip0_2_159)">
<path fill-rule="evenodd" clip-rule="evenodd" d="M48.3005 27.0957C38.6315 21.3537 22.6805 20.825 13.4465 23.627C11.9645 24.074 10.3985 23.2399 9.94853 21.7549C9.49853 20.2729 10.3355 18.7068 11.8175 18.2568C22.4165 15.0378 40.0326 15.6586 51.1656 22.2676C52.4976 23.0596 52.9355 24.7823 52.1435 26.1143C51.3575 27.4463 49.6295 27.8877 48.3005 27.0957ZM47.9855 35.6006C47.3075 36.7016 45.8675 37.0461 44.7665 36.3711C36.7055 31.4151 24.4115 29.981 14.8745 32.876C13.6355 33.248 12.3306 32.5519 11.9556 31.3159C11.5836 30.0799 12.2795 28.7744 13.5155 28.3994C24.4085 25.0934 37.9535 26.6957 47.2145 32.3867C48.3155 33.0617 48.6605 34.5026 47.9855 35.6006ZM44.3135 43.7686C43.7735 44.6506 42.6245 44.9296 41.7425 44.3896C34.6985 40.0846 25.8305 39.113 15.3875 41.498C14.3825 41.729 13.3775 41.0983 13.1495 40.0903C12.9185 39.0853 13.5455 38.0845 14.5565 37.8535C25.9835 35.2405 35.7845 36.3648 43.6925 41.1978C44.5745 41.7378 44.8535 42.8866 44.3135 43.7686ZM30.5555 0.5C13.9865 0.5 0.555542 13.931 0.555542 30.5C0.555542 47.069 13.9865 60.5 30.5555 60.5C47.1245 60.5 60.5555 47.069 60.5555 30.5C60.5555 13.934 47.1245 0.5 30.5555 0.5Z" fill="#F5F5F5"/>
</g>
<defs>
<clipPath id="clip0_2_159">
<rect width="60" height="60" fill="white" transform="translate(0.555542 0.5)"/>
</clipPath>
</defs>
</svg>
