<svg width="61" height="61" viewBox="0 0 61 61" fill="none" xmlns="http://www.w3.org/2000/svg">
<g clip-path="url(#clip0_2_147)">
<path d="M30.5555 0.5C13.9852 0.5 0.555542 13.9297 0.555542 30.5C0.555542 47.0703 13.9852 60.5 30.5555 60.5C47.1259 60.5 60.5555 47.0703 60.5555 30.5C60.5555 13.9297 47.1259 0.5 30.5555 0.5ZM42.5321 25.8359C42.5438 26.0938 42.5438 26.3633 42.5438 26.6328C42.5438 34.7773 36.3446 44.1758 25.0009 44.1758C21.5204 44.1758 18.2743 43.1562 15.5555 41.4102C16.036 41.4688 16.5282 41.4922 17.0321 41.4922C19.9149 41.4922 22.5751 40.5078 24.6844 38.8555C21.9891 38.8086 19.704 37.0273 18.9305 34.5781C19.3055 34.6484 19.6923 34.6836 20.0907 34.6836C20.6532 34.6836 21.204 34.6133 21.7196 34.4609C18.8954 33.8984 16.7743 31.4023 16.7743 28.4141V28.3438C17.6063 28.8008 18.5555 29.082 19.5634 29.1172C17.911 28.0156 16.8212 26.1172 16.8212 23.9844C16.8212 22.8594 17.1259 21.793 17.6532 20.8789C20.7001 24.6172 25.2352 27.0664 30.3563 27.3242C30.2509 26.8789 30.1923 26.4102 30.1923 25.918C30.1923 22.5195 32.9579 19.7539 36.3563 19.7539C38.1259 19.7539 39.7313 20.5039 40.8563 21.6992C42.2626 21.418 43.5751 20.9141 44.7704 20.1992C44.3134 21.6406 43.329 22.8477 42.0634 23.6094C43.3055 23.457 44.5009 23.1289 45.6024 22.6367C44.7821 23.8789 43.7391 24.957 42.5321 25.8359Z" fill="#F5F5F5"/>
</g>
<defs>
<clipPath id="clip0_2_147">
<rect width="60" height="60" fill="white" transform="translate(0.555542 0.5)"/>
</clipPath>
</defs>
</svg>
