<svg width="65" height="65" viewBox="0 0 65 65" fill="none" xmlns="http://www.w3.org/2000/svg">
<path d="M28.1709 38.7588L38.8096 32.5127L28.1709 26.2666V38.7588Z" fill="#F5F5F5"/>
<path d="M32.5 0C14.5488 0 0 14.5488 0 32.5C0 50.4512 14.5488 65 32.5 65C50.4512 65 65 50.4512 65 32.5C65 14.5488 50.4512 0 32.5 0ZM48.75 38.3145C48.75 43.9131 43.1514 43.9131 43.1514 43.9131H21.8486C16.25 43.9131 16.25 38.3145 16.25 38.3145V26.6982C16.25 21.0996 21.8486 21.0996 21.8486 21.0996H43.1514C48.75 21.0996 48.75 26.6982 48.75 26.6982V38.3145Z" fill="#F5F5F5"/>
</svg>
